<svg width="4305" height="899" viewBox="0 0 4305 899" fill="none" xmlns="http://www.w3.org/2000/svg">
<path d="M1300.4 121.6C1359.07 121.6 1410.53 133.067 1454.8 156C1499.6 178.933 1534 211.733 1558 254.4C1582.53 296.533 1594.8 345.6 1594.8 401.6C1594.8 457.6 1582.53 506.667 1558 548.8C1534 590.4 1499.6 622.667 1454.8 645.6C1410.53 668.533 1359.07 680 1300.4 680H1105.2V121.6H1300.4ZM1296.4 584.8C1355.07 584.8 1400.4 568.8 1432.4 536.8C1464.4 504.8 1480.4 459.733 1480.4 401.6C1480.4 343.467 1464.4 298.133 1432.4 265.6C1400.4 232.533 1355.07 216 1296.4 216H1217.2V584.8H1296.4ZM1735.44 184C1715.7 184 1699.17 177.867 1685.84 165.6C1673.04 152.8 1666.64 137.067 1666.64 118.4C1666.64 99.7333 1673.04 84.2666 1685.84 72C1699.17 59.2 1715.7 52.8 1735.44 52.8C1755.17 52.8 1771.44 59.2 1784.24 72C1797.57 84.2666 1804.24 99.7333 1804.24 118.4C1804.24 137.067 1797.57 152.8 1784.24 165.6C1771.44 177.867 1755.17 184 1735.44 184ZM1790.64 236.8V680H1678.64V236.8H1790.64ZM2074.89 229.6C2107.96 229.6 2137.03 236.267 2162.09 249.6C2187.16 262.4 2206.89 279.2 2221.29 300V236.8H2334.09V683.2C2334.09 724.267 2325.83 760.8 2309.29 792.8C2292.76 825.333 2267.96 850.933 2234.89 869.6C2201.83 888.8 2161.83 898.4 2114.89 898.4C2051.96 898.4 2000.23 883.733 1959.69 854.4C1919.69 825.067 1897.03 785.067 1891.69 734.4H2002.89C2008.76 754.667 2021.29 770.667 2040.49 782.4C2060.23 794.667 2083.96 800.8 2111.69 800.8C2144.23 800.8 2170.63 790.933 2190.89 771.2C2211.16 752 2221.29 722.667 2221.29 683.2V614.4C2206.89 635.2 2186.89 652.533 2161.29 666.4C2136.23 680.267 2107.43 687.2 2074.89 687.2C2037.56 687.2 2003.43 677.6 1972.49 658.4C1941.56 639.2 1917.03 612.267 1898.89 577.6C1881.29 542.4 1872.49 502.133 1872.49 456.8C1872.49 412 1881.29 372.267 1898.89 337.6C1917.03 302.933 1941.29 276.267 1971.69 257.6C2002.63 238.933 2037.03 229.6 2074.89 229.6ZM2221.29 458.4C2221.29 431.2 2215.96 408 2205.29 388.8C2194.63 369.067 2180.23 354.133 2162.09 344C2143.96 333.333 2124.49 328 2103.69 328C2082.89 328 2063.69 333.067 2046.09 343.2C2028.49 353.333 2014.09 368.267 2002.89 388C1992.23 407.2 1986.89 430.133 1986.89 456.8C1986.89 483.467 1992.23 506.933 2002.89 527.2C2014.09 546.933 2028.49 562.133 2046.09 572.8C2064.23 583.467 2083.43 588.8 2103.69 588.8C2124.49 588.8 2143.96 583.733 2162.09 573.6C2180.23 562.933 2194.63 548 2205.29 528.8C2215.96 509.067 2221.29 485.6 2221.29 458.4ZM2500.28 184C2480.55 184 2464.01 177.867 2450.68 165.6C2437.88 152.8 2431.48 137.067 2431.48 118.4C2431.48 99.7333 2437.88 84.2666 2450.68 72C2464.01 59.2 2480.55 52.8 2500.28 52.8C2520.01 52.8 2536.28 59.2 2549.08 72C2562.41 84.2666 2569.08 99.7333 2569.08 118.4C2569.08 137.067 2562.41 152.8 2549.08 165.6C2536.28 177.867 2520.01 184 2500.28 184ZM2555.48 236.8V680H2443.48V236.8H2555.48ZM3046.14 121.6V212H2897.34V680H2785.34V212H2636.54V121.6H3046.14ZM3099.06 456.8C3099.06 412 3107.86 372.267 3125.46 337.6C3143.59 302.933 3167.86 276.267 3198.26 257.6C3229.19 238.933 3263.59 229.6 3301.46 229.6C3334.52 229.6 3363.32 236.267 3387.86 249.6C3412.92 262.933 3432.92 279.733 3447.86 300V236.8H3560.66V680H3447.86V615.2C3433.46 636 3413.46 653.333 3387.86 667.2C3362.79 680.533 3333.72 687.2 3300.66 687.2C3263.32 687.2 3229.19 677.6 3198.26 658.4C3167.86 639.2 3143.59 612.267 3125.46 577.6C3107.86 542.4 3099.06 502.133 3099.06 456.8ZM3447.86 458.4C3447.86 431.2 3442.52 408 3431.86 388.8C3421.19 369.067 3406.79 354.133 3388.66 344C3370.52 333.333 3351.06 328 3330.26 328C3309.46 328 3290.26 333.067 3272.66 343.2C3255.06 353.333 3240.66 368.267 3229.46 388C3218.79 407.2 3213.46 430.133 3213.46 456.8C3213.46 483.467 3218.79 506.933 3229.46 527.2C3240.66 546.933 3255.06 562.133 3272.66 572.8C3290.79 583.467 3309.99 588.8 3330.26 588.8C3351.06 588.8 3370.52 583.733 3388.66 573.6C3406.79 562.933 3421.19 548 3431.86 528.8C3442.52 509.067 3447.86 485.6 3447.86 458.4ZM3782.04 88V680H3670.04V88H3782.04ZM4155.1 680L4004.7 491.2V680H3892.7V88H4004.7V424.8L4153.5 236.8H4299.1L4103.9 459.2L4300.7 680H4155.1Z" fill="black"/>
<path d="M400 500V233.333" stroke="#3C50E0" stroke-width="50" stroke-linecap="round"/>
<path d="M266.667 433.333V300" stroke="#3C50E0" stroke-width="50" stroke-linecap="round"/>
<path d="M533.333 433.333V300" stroke="#3C50E0" stroke-width="50" stroke-linecap="round"/>
<path d="M41.6668 350C41.6668 363.807 52.8598 375 66.6668 375C80.4738 375 91.6668 363.807 91.6668 350H41.6668ZM102.45 520.88C97.1668 508.123 82.5424 502.067 69.7864 507.35C57.0304 512.633 50.9728 527.257 56.2564 540.013L102.45 520.88ZM457.737 725.657L475.807 695.13L432.777 669.66L414.707 700.19L457.737 725.657ZM324.193 695.13L342.263 725.657L385.29 700.19L367.22 669.66L324.193 695.13ZM414.707 700.19C408.283 711.043 391.717 711.043 385.29 700.19L342.263 725.657C368.05 769.223 431.95 769.223 457.737 725.657L414.707 700.19ZM350 91.6667H450V41.6667H350V91.6667ZM708.333 350V383.333H758.333V350H708.333ZM260.083 608.053C218.235 607.33 196.308 604.67 179.12 597.55L159.986 643.743C186.818 654.857 217.379 657.323 259.222 658.043L260.083 608.053ZM56.2564 540.013C75.7094 586.977 113.022 624.29 159.986 643.743L179.12 597.55C144.407 583.17 116.829 555.593 102.45 520.88L56.2564 540.013ZM708.333 383.333C708.333 422.503 708.32 450.63 706.807 472.823C705.307 494.793 702.42 509.12 697.55 520.88L743.743 540.013C751.56 521.147 755.017 500.743 756.69 476.227C758.347 451.937 758.333 421.82 758.333 383.333H708.333ZM540.777 658.043C582.62 657.323 613.183 654.857 640.013 643.743L620.88 597.55C603.693 604.67 581.763 607.33 539.917 608.053L540.777 658.043ZM697.55 520.88C683.17 555.593 655.593 583.17 620.88 597.55L640.013 643.743C686.977 624.29 724.29 586.977 743.743 540.013L697.55 520.88ZM450 91.6667C505.04 91.6667 544.567 91.693 575.397 94.6243C605.857 97.5203 625.237 103.074 640.687 112.543L666.813 69.9107C642.183 54.819 614.247 48.093 580.13 44.849C546.383 41.6403 504.073 41.6667 450 41.6667V91.6667ZM758.333 350C758.333 295.927 758.36 253.617 755.15 219.87C751.907 185.752 745.18 157.815 730.09 133.188L687.457 159.313C696.927 174.764 702.48 194.145 705.377 224.603C708.307 255.433 708.333 294.959 708.333 350H758.333ZM640.687 112.543C659.75 124.224 675.777 140.251 687.457 159.313L730.09 133.188C714.287 107.398 692.603 85.7147 666.813 69.9107L640.687 112.543ZM350 41.6667C295.927 41.6667 253.617 41.6403 219.87 44.849C185.752 48.093 157.815 54.819 133.188 69.9107L159.313 112.543C174.764 103.074 194.145 97.5203 224.603 94.6243C255.433 91.693 294.959 91.6667 350 91.6667V41.6667ZM91.6668 350C91.6668 294.959 91.6931 255.433 94.6244 224.603C97.5204 194.145 103.074 174.764 112.543 159.313L69.9108 133.188C54.8191 157.815 48.0931 185.752 44.8491 219.87C41.6404 253.617 41.6668 295.927 41.6668 350H91.6668ZM133.188 69.9107C107.398 85.7147 85.7148 107.398 69.9108 133.188L112.543 159.313C124.224 140.251 140.251 124.224 159.313 112.543L133.188 69.9107ZM367.22 669.66C360.453 658.227 354.513 648.137 348.737 640.21C342.65 631.863 335.673 624.347 325.995 618.717L300.857 661.94C302.438 662.857 304.591 664.533 308.328 669.66C312.374 675.213 316.945 682.883 324.193 695.13L367.22 669.66ZM259.222 658.043C273.858 658.297 283.129 658.483 290.196 659.263C296.8 659.997 299.359 661.067 300.857 661.94L325.995 618.717C316.237 613.04 306.082 610.717 295.699 609.567C285.78 608.47 273.792 608.29 260.083 608.053L259.222 658.043ZM475.807 695.13C483.053 682.883 487.623 675.213 491.67 669.66C495.407 664.533 497.56 662.857 499.14 661.94L474.003 618.717C464.327 624.347 457.347 631.863 451.263 640.21C445.487 648.137 439.547 658.227 432.777 669.66L475.807 695.13ZM539.917 608.053C526.207 608.29 514.22 608.47 504.3 609.567C493.917 610.717 483.763 613.04 474.003 618.717L499.14 661.94C500.64 661.067 503.2 659.997 509.803 659.263C516.87 658.483 526.14 658.297 540.777 658.043L539.917 608.053Z" fill="#3C50E0"/>
<path d="M436.223 712.923L457.737 725.657M457.737 725.657L475.807 695.13M457.737 725.657L414.707 700.19M457.737 725.657C431.95 769.223 368.05 769.223 342.263 725.657M454.293 682.393L432.777 669.66M432.777 669.66L475.807 695.13M432.777 669.66L414.707 700.19M432.777 669.66C439.547 658.227 445.487 648.137 451.263 640.21C457.347 631.863 464.327 624.347 474.003 618.717M345.707 682.393L324.193 695.13M324.193 695.13L342.263 725.657M324.193 695.13L367.22 669.66M324.193 695.13C316.945 682.883 312.374 675.213 308.328 669.66C304.591 664.533 302.438 662.857 300.857 661.94M363.777 712.923L385.29 700.19M385.29 700.19L342.263 725.657M385.29 700.19L367.22 669.66M385.29 700.19C391.717 711.043 408.283 711.043 414.707 700.19M41.6668 350C41.6668 363.807 52.8598 375 66.6668 375C80.4738 375 91.6668 363.807 91.6668 350M41.6668 350H91.6668M41.6668 350C41.6668 295.927 41.6404 253.617 44.8491 219.87C48.0931 185.752 54.8191 157.815 69.9108 133.188M91.6668 350C91.6668 294.959 91.6931 255.433 94.6244 224.603C97.5204 194.145 103.074 174.764 112.543 159.313M102.45 520.88C97.1668 508.123 82.5424 502.067 69.7864 507.35C57.0304 512.633 50.9728 527.257 56.2564 540.013M102.45 520.88L56.2564 540.013M102.45 520.88C116.829 555.593 144.407 583.17 179.12 597.55M56.2564 540.013C75.7094 586.977 113.022 624.29 159.986 643.743M259.653 633.05L259.222 658.043M259.222 658.043C217.379 657.323 186.818 654.857 159.986 643.743M259.222 658.043L260.083 608.053M259.222 658.043C273.858 658.297 283.129 658.483 290.196 659.263C296.8 659.997 299.359 661.067 300.857 661.94M169.553 620.647L159.986 643.743M159.986 643.743L179.12 597.55M720.647 530.447L743.743 540.013M743.743 540.013L697.55 520.88M743.743 540.013C751.56 521.147 755.017 500.743 756.69 476.227C758.347 451.937 758.333 421.82 758.333 383.333M743.743 540.013C724.29 586.977 686.977 624.29 640.013 643.743M540.347 633.05L539.917 608.053M539.917 608.053C581.763 607.33 603.693 604.67 620.88 597.55M539.917 608.053L540.777 658.043M539.917 608.053C526.207 608.29 514.22 608.47 504.3 609.567C493.917 610.717 483.763 613.04 474.003 618.717M630.447 620.647L640.013 643.743M640.013 643.743C613.183 654.857 582.62 657.323 540.777 658.043M640.013 643.743L620.88 597.55M653.75 91.2267L640.687 112.543M640.687 112.543C625.237 103.074 605.857 97.5203 575.397 94.6243C544.567 91.693 505.04 91.6667 450 91.6667M640.687 112.543L666.813 69.9107M640.687 112.543C659.75 124.224 675.777 140.251 687.457 159.313M708.773 146.25L730.09 133.188M730.09 133.188C745.18 157.815 751.907 185.752 755.15 219.87C758.36 253.617 758.333 295.927 758.333 350M730.09 133.188L687.457 159.313M730.09 133.188C714.287 107.398 692.603 85.7147 666.813 69.9107M146.25 91.2267L133.188 69.9107M133.188 69.9107C157.815 54.819 185.752 48.093 219.87 44.849C253.617 41.6403 295.927 41.6667 350 41.6667M133.188 69.9107L159.313 112.543M133.188 69.9107C107.398 85.7147 85.7148 107.398 69.9108 133.188M91.2268 146.25L69.9108 133.188M69.9108 133.188L112.543 159.313M313.426 640.327L325.995 618.717M325.995 618.717C335.673 624.347 342.65 631.863 348.737 640.21C354.513 648.137 360.453 658.227 367.22 669.66M325.995 618.717L300.857 661.94M325.995 618.717C316.237 613.04 306.082 610.717 295.699 609.567C285.78 608.47 273.792 608.29 260.083 608.053M475.807 695.13C483.053 682.883 487.623 675.213 491.67 669.66C495.407 664.533 497.56 662.857 499.14 661.94M350 91.6667H450M350 91.6667V41.6667M350 91.6667C294.959 91.6667 255.433 91.693 224.603 94.6243C194.145 97.5203 174.764 103.074 159.313 112.543M450 91.6667V41.6667M450 41.6667H350M450 41.6667C504.073 41.6667 546.383 41.6403 580.13 44.849C614.247 48.093 642.183 54.819 666.813 69.9107M708.333 350V383.333M708.333 350H758.333M708.333 350C708.333 294.959 708.307 255.433 705.377 224.603C702.48 194.145 696.927 174.764 687.457 159.313M708.333 383.333H758.333M708.333 383.333C708.333 422.503 708.32 450.63 706.807 472.823C705.307 494.793 702.42 509.12 697.55 520.88M758.333 383.333V350M260.083 608.053C218.235 607.33 196.308 604.67 179.12 597.55M697.55 520.88C683.17 555.593 655.593 583.17 620.88 597.55M540.777 658.043C526.14 658.297 516.87 658.483 509.803 659.263C503.2 659.997 500.64 661.067 499.14 661.94M159.313 112.543C140.251 124.224 124.224 140.251 112.543 159.313M499.14 661.94L474.003 618.717" stroke="#3C50E0" stroke-width="33.3333"/>
</svg>
